<svg width="20" height="22" viewBox="0 0 20 22" fill="none" xmlns="http://www.w3.org/2000/svg">
  <path fill-rule="evenodd" clip-rule="evenodd" d="M14.5032 11.2417C17.2274 11.2417 19.4358 13.4501 19.4358 16.1743V16.4891L19.4357 16.521C19.4185 19.2305 17.2167 21.4217 14.5032 21.4217H4.99316C2.26895 21.4217 0.0605476 19.2133 0.0605476 16.4891V16.1743C0.0605478 13.4501 2.26895 11.2417 4.99316 11.2417H14.5032ZM4.99316 14.0107C3.79825 14.0107 2.82959 14.9794 2.82959 16.1743V16.4891C2.82959 17.684 3.79825 18.6527 4.99316 18.6527H14.5032C15.6981 18.6527 16.6667 17.684 16.6667 16.4891V16.1743C16.6667 14.9794 15.6981 14.0107 14.5032 14.0107H4.99316Z" fill="url(#greep-gradient)"/>
  <path d="M9.59881 0C11.8658 0 14.0503 0.801646 15.7728 2.24805L17.6042 0.278519L18.7052 1.50546L16.8595 3.31893C18.3625 5.05623 19.1976 7.28241 19.1976 9.59477H16.2025C16.2025 7.84467 15.507 6.16609 14.2686 4.92835C13.0302 3.69059 11.3505 2.99509 9.59881 2.99509C7.84715 2.99509 6.16739 3.69059 4.92901 4.92835C3.69065 6.16609 2.99509 7.84467 2.99509 9.59477H0C0 7.04984 1.01148 4.60929 2.81169 2.80998L2.83281 2.78893C4.63095 1.00281 7.06323 0 9.59881 0Z" fill="#232323"/>
  <path d="M6.93875 7.3424C7.32665 7.3424 7.6411 7.65686 7.6411 8.04476V9.59477H6.2364V8.04476C6.2364 7.65686 6.55085 7.3424 6.93875 7.3424Z" fill="#232323"/>
  <path d="M12.5011 7.3424C12.889 7.3424 13.2034 7.65686 13.2034 8.04476V9.59477H11.7987V8.04476C11.7987 7.65686 12.1132 7.3424 12.5011 7.3424Z" fill="#232323"/>
  <defs>
    <linearGradient id="greep-gradient" x1="16.2901" y1="-2.34962" x2="-2.91525" y2="5.16253" gradientUnits="userSpaceOnUse">
      <stop stop-color="#0D965E"/>
      <stop offset="1" stop-color="#00683F"/>
    </linearGradient>
  </defs>
</svg>
