<svg width="34" height="27" viewBox="0 0 34 27" fill="none" xmlns="http://www.w3.org/2000/svg">
<path d="M33.3333 10V20C33.3333 21.7681 32.631 23.4638 31.3807 24.714C30.1305 25.9643 28.4348 26.6667 26.6667 26.6667H6.66667C4.89856 26.6667 3.20286 25.9643 1.95262 24.714C0.702379 23.4638 0 21.7681 0 20V10H33.3333ZM8.35 16.6667H8.33333C8.11446 16.6678 7.89795 16.712 7.69616 16.7967C7.49437 16.8815 7.31125 17.0052 7.15726 17.1607C6.84627 17.4748 6.67279 17.8996 6.675 18.3417C6.6761 18.5605 6.72029 18.777 6.80506 18.9788C6.88983 19.1806 7.01351 19.3637 7.16905 19.5177C7.32459 19.6717 7.50893 19.7936 7.71156 19.8763C7.91419 19.9591 8.13113 20.0011 8.35 20C8.79203 20 9.21595 19.8244 9.52851 19.5118C9.84107 19.1993 10.0167 18.7754 10.0167 18.3333C10.0167 17.8913 9.84107 17.4674 9.52851 17.1548C9.21595 16.8423 8.79203 16.6667 8.35 16.6667ZM18.3333 16.6667H15C14.558 16.6667 14.1341 16.8423 13.8215 17.1548C13.5089 17.4674 13.3333 17.8913 13.3333 18.3333C13.3333 18.7754 13.5089 19.1993 13.8215 19.5118C14.1341 19.8244 14.558 20 15 20H18.3333C18.7754 20 19.1993 19.8244 19.5118 19.5118C19.8244 19.1993 20 18.7754 20 18.3333C20 17.8913 19.8244 17.4674 19.5118 17.1548C19.1993 16.8423 18.7754 16.6667 18.3333 16.6667ZM26.6667 0C28.4348 0 30.1305 0.702379 31.3807 1.95262C32.631 3.20286 33.3333 4.89856 33.3333 6.66667H0C0 4.89856 0.702379 3.20286 1.95262 1.95262C3.20286 0.702379 4.89856 0 6.66667 0H26.6667Z" fill="white"/>
</svg>
