<svg width="34" height="24" viewBox="0 0 34 24" fill="none" xmlns="http://www.w3.org/2000/svg">
<path d="M28.3333 0C29.6594 0 30.9312 0.526784 31.8689 1.46447C32.8066 2.40215 33.3333 3.67392 33.3333 5V18.3333C33.3333 19.6594 32.8066 20.9312 31.8689 21.8689C30.9312 22.8066 29.6594 23.3333 28.3333 23.3333H5C3.67392 23.3333 2.40215 22.8066 1.46447 21.8689C0.526784 20.9312 0 19.6594 0 18.3333V5C0 3.67392 0.526784 2.40215 1.46447 1.46447C2.40215 0.526784 3.67392 0 5 0H28.3333ZM16.6667 6.66667C15.3839 6.66677 14.1503 7.15987 13.2209 8.04397C12.2915 8.92807 11.7375 10.1355 11.6733 11.4167L11.6667 11.6667C11.6667 12.6556 11.9599 13.6223 12.5093 14.4445C13.0587 15.2668 13.8396 15.9076 14.7533 16.2861C15.6669 16.6645 16.6722 16.7635 17.6421 16.5706C18.612 16.3777 19.5029 15.9015 20.2022 15.2022C20.9015 14.5029 21.3777 13.612 21.5706 12.6421C21.7635 11.6722 21.6645 10.6669 21.2861 9.75325C20.9076 8.83962 20.2668 8.05873 19.4445 7.50932C18.6223 6.95991 17.6556 6.66667 16.6667 6.66667ZM26.6833 10H26.6667C26.2246 10 25.8007 10.1756 25.4882 10.4882C25.1756 10.8007 25 11.2246 25 11.6667C25 12.1087 25.1756 12.5326 25.4882 12.8452C25.8007 13.1577 26.2246 13.3333 26.6667 13.3333H26.6833C27.1254 13.3333 27.5493 13.1577 27.8618 12.8452C28.1744 12.5326 28.35 12.1087 28.35 11.6667C28.35 11.2246 28.1744 10.8007 27.8618 10.4882C27.5493 10.1756 27.1254 10 26.6833 10ZM6.68333 10H6.66667C6.4478 10.0011 6.23129 10.0453 6.0295 10.1301C5.8277 10.2148 5.64459 10.3385 5.4906 10.494C5.33661 10.6496 5.21476 10.8339 5.13201 11.0366C5.04926 11.2392 5.00724 11.4561 5.00833 11.675C5.00943 11.8939 5.05362 12.1104 5.13839 12.3122C5.22316 12.514 5.34684 12.6971 5.50238 12.8511C5.65792 13.0051 5.84227 13.1269 6.04489 13.2097C6.24752 13.2924 6.46446 13.3344 6.68333 13.3333C7.12536 13.3333 7.54928 13.1577 7.86185 12.8452C8.17441 12.5326 8.35 12.1087 8.35 11.6667C8.35 11.2246 8.17441 10.8007 7.86185 10.4882C7.54928 10.1756 7.12536 10 6.68333 10Z" fill="white"/>
</svg>
